 
<svg width="100%" height="100%" viewBox="0 0 557 557" version="1.1" xmlns="http://www.w3.org/2000/svg" xmlns:xlink="http://www.w3.org/1999/xlink" xml:space="preserve" xmlns:serif="http://www.serif.com/" style="fill-rule:evenodd;clip-rule:evenodd;stroke-linecap:round;stroke-linejoin:round;stroke-miterlimit:1.5;">
    <g transform="matrix(1,0,0,1,-249,-539)">
        <path d="M309,747C325.059,740.721 338.278,737.164 349,736C364.219,734.731 376.559,731.989 395,737C407.346,740.355 419,747.784 431,756C438.982,761.799 446.019,768.754 452,777C455.676,781.72 459.657,788.277 464,797C465.791,802.428 467.432,809.348 469,817C470.824,823.718 472.065,828.396 473,832C474.436,835.387 475.786,838.17 477,840C479.667,843.366 482.333,846.191 485,848C488.098,850.82 491.676,853.735 497,857L510,866C513.59,869.743 518.075,872.591 523,875C523.313,876 523.354,877 523,878C522,879.124 521,879.433 520,879C518.218,879.413 514.341,878.256 509,876C504.566,873.786 501.543,872.767 500,873C499.481,875.241 500.177,878.089 501,881C503.137,887.308 503.866,891.584 504,895C505.522,900.594 506.369,905.851 507,911C507.427,913.333 507.795,915.667 508,918C507.118,919.672 505.771,920.995 504,922C501.79,923.414 501.205,923.377 501,923C497.944,919.667 496.478,916.333 495,913C491.914,905.809 489.197,899.079 487,893C484.084,883.416 480.926,874.021 476,866C472.784,858.667 470.324,854.542 468,851C464.971,844.48 460.143,839.629 454,836C446.218,831.511 438.56,828.265 431,826C420.899,822.739 410.546,820.482 400,819C393.625,817.106 383.825,815.449 371,814C366.732,813.548 359.383,813.23 350,813C343.097,812.774 338.565,812.449 337,812C329.631,811.348 326.04,810.584 321,809C315.095,807.372 309.681,804.296 306,802C301.227,798.55 296.884,794.562 293,790C290.652,786.333 288.681,782.667 287,779C285.84,775.333 285.713,771.667 287,768C289.378,763.378 292.287,759.287 296,756C299.789,752.456 304.099,749.432 309,747Z" style="stroke:black;stroke-width:1px;"/>
    </g>
    <g transform="matrix(1,0,0,1,-249,-539)">
        <path d="M311,682C314.637,680.091 316.652,680.13 320,680C324.693,681.86 328.73,685.115 332,690C334.254,693.644 336.28,698.509 338,705C338.484,708.677 338.584,712.611 338,717C337.579,720.167 337.449,721.319 334,728C331.17,733.482 331.066,732.548 329,734.102C327,735.435 325,735.912 323,736C319.739,734.673 316.44,732.821 313,729C310,725.881 307,721.788 304,716C302.694,713.376 301.594,709.828 301,704C301.146,699.514 301.608,695.527 303,693L306,687L311,682Z" style="stroke:black;stroke-width:1px;"/>
    </g>
    <g transform="matrix(1,0,0,1,-249,-539)">
        <path d="M368,637C373.526,635.245 378.541,635.196 383,637C386.96,640.771 390.285,645.45 393,651C396.616,660.568 398.697,669.254 399,680C398.9,691.216 398.327,691.084 395,704C393.225,709.056 391.597,711.332 390,713C386.534,717.434 382.822,720.523 379,723C375.865,724.649 372.491,723.91 369,722C364.911,718.467 361.666,713.668 359,708C355.391,701.667 353.007,695.333 351,689C349.99,681.744 349.764,675.943 350,671C349.968,666.404 350.539,661.377 353,655C353.909,652 354.129,651 358,646C361.799,641.093 363.596,639.416 368,637Z" style="stroke:black;stroke-width:1px;"/>
    </g>
    <g transform="matrix(1,0,0,1,-249,-539)">
        <path d="M434,674C438.262,668.892 443.348,666.023 449,663C454.168,661.993 459.179,661.617 464,662C467.794,663.555 470.943,666.012 473,670C473.871,676 474.477,682 475,688C474.59,695.774 473.148,702.311 471,708C468.738,714.923 465.957,719.771 463,723.912C460.21,728.304 456.832,732.303 453,736C449.205,739.643 445.143,741.14 441,742C434.678,743.435 430.227,743.311 426,743C420.182,742.523 416.038,739.952 413,736C410.802,728.518 410.417,722.396 411,717C411.82,710.145 413.137,704.118 415,699C418,692.529 421,687.344 424,684C427.811,679.566 431.231,675.306 434,674Z" style="stroke:black;stroke-width:1px;"/>
    </g>
    <g transform="matrix(1,0,0,1,-249,-539)">
        <path d="M470,744C472.821,742.462 475.823,741.47 479,741C481.333,740.47 483.667,740.462 486,741C488.502,742.536 490.1,744.574 491,747C491.609,750 491.925,753 492,756C491.608,759.672 490.926,762.285 490,764C489.084,767.397 487.628,769.849 486,772C484.667,774.285 483.333,775.961 482,777C480.333,779.121 478.667,780.48 477,781C475.278,781.519 473.255,781.837 471,782C467.981,782.019 465.774,781.226 464,780C460.637,778.642 458.583,776.892 457,775C455.657,772.044 455.097,769.423 455,767C454.713,762.758 454.753,759.929 455,758C457.414,754.528 459.764,751.693 462,750L470,744Z" style="stroke:black;stroke-width:1px;"/>
    </g>
    <g transform="matrix(0.850401,0,0,0.850401,-167.865,-435.854)">
        <g transform="matrix(110.165,0,0,110.165,765.364,723.912)">
        </g>
        <text x="549px" y="723.912px" style="font-family:'Oswald-Medium', 'Oswald';font-weight:500;font-size:110.165px;">P<tspan x="606.176px " y="723.912px ">a</tspan>ws</text>
    </g>
    <g transform="matrix(0.850401,0,0,0.850401,-168.865,-342.731)">
        <g transform="matrix(110.165,0,0,110.165,671.503,723.912)">
        </g>
        <text x="549px" y="723.912px" style="font-family:'Oswald-Medium', 'Oswald';font-weight:500;font-size:110.165px;">for</text>
    </g>
    <g transform="matrix(0.850401,0,0,0.850401,-166.556,-243.731)">
        <g transform="matrix(110.165,0,0,110.165,814.498,723.912)">
        </g>
        <text x="549px" y="723.912px" style="font-family:'Oswald-Medium', 'Oswald';font-weight:500;font-size:110.165px;">R<tspan x="610.582px " y="723.912px ">i</tspan>vers</text>
    </g>
</svg>
