<?xml version="1.0" encoding="UTF-8" standalone="no"?>
<!DOCTYPE svg PUBLIC "-//W3C//DTD SVG 1.1//EN" "http://www.w3.org/Graphics/SVG/1.1/DTD/svg11.dtd">
<svg width="100%" height="100%" viewBox="0 0 1280 640" version="1.1" xmlns="http://www.w3.org/2000/svg" xmlns:xlink="http://www.w3.org/1999/xlink" xml:space="preserve" xmlns:serif="http://www.serif.com/" style="fill-rule:evenodd;clip-rule:evenodd;stroke-linejoin:round;stroke-miterlimit:2;">
    <g transform="matrix(0.1,0,0,-0.1,0,640)">
        <g opacity="0.25">
            <path d="M0,6397L0,6180L39,6180C218,6180 434,6107 606,5989C708,5918 886,5733 877,5706C875,5701 832,5679 782,5658L690,5620L623,5691C481,5842 305,5933 107,5960C64,5965 22,5970 14,5970C3,5970 0,5949 0,5865C0,5747 -9,5758 95,5745C219,5729 368,5652 453,5561C479,5533 500,5507 500,5503C500,5496 432,5434 373,5386C349,5368 349,5368 295,5419C231,5479 139,5525 57,5538L0,5547L0,5332L43,5322C104,5306 151,5271 179,5221C202,5180 202,5176 186,5144L170,5110L85,5116L0,5123L0,4900L39,4900C218,4900 434,4827 606,4709C708,4638 886,4453 877,4426C875,4421 832,4399 782,4378L690,4340L623,4411C481,4562 305,4653 107,4680C64,4685 22,4690 14,4690C3,4690 0,4669 0,4585C0,4467 -9,4478 95,4465C219,4449 368,4372 453,4281C479,4253 500,4227 500,4223C500,4216 432,4154 373,4106C349,4088 349,4088 295,4139C231,4199 139,4245 58,4258L0,4267L0,4052L43,4042C104,4026 151,3991 179,3941C202,3900 202,3896 186,3864L170,3830L85,3836L0,3843L0,3620L39,3620C218,3620 434,3547 606,3429C708,3358 886,3173 877,3146C875,3141 832,3119 782,3098L690,3060L623,3131C481,3282 305,3373 107,3400C64,3405 22,3410 14,3410C3,3410 0,3389 0,3305C0,3187 -9,3198 95,3185C219,3169 368,3092 453,3001C479,2973 500,2947 500,2943C500,2936 432,2874 373,2826C349,2808 349,2808 295,2859C231,2919 139,2965 58,2978L0,2987L0,2772L43,2762C104,2746 151,2711 179,2661C202,2620 202,2616 186,2584L170,2550L85,2556L0,2563L0,2340L39,2340C218,2340 434,2267 606,2149C708,2078 886,1893 877,1866C875,1861 832,1839 782,1818L690,1780L623,1851C481,2002 305,2093 107,2120C64,2125 22,2130 14,2130C3,2130 0,2109 0,2025C0,1907 -9,1918 95,1905C219,1889 368,1812 453,1721C479,1693 500,1667 500,1663C500,1656 432,1594 373,1546C349,1528 349,1528 295,1579C231,1639 139,1685 58,1698L0,1707L0,1492L43,1482C104,1466 151,1431 179,1381C202,1340 202,1336 186,1304L170,1270L85,1276L0,1283L0,1060L39,1060C218,1060 434,987 606,869C708,798 886,613 877,586C875,581 832,559 782,538L690,500L623,571C481,722 305,813 107,840C64,845 22,850 14,850C3,850 0,829 0,745C0,627 -9,638 95,625C219,609 368,532 453,441C479,413 500,387 500,383C500,376 432,314 373,266C349,248 349,248 295,299C231,359 139,405 58,418L0,427L0,212L43,202C102,187 150,152 177,105C199,66 200,55 185,18C178,1 188,0 304,0L430,0L472,47C640,234 821,341 1070,402C1105,410 1184,415 1285,414C1426,414 1457,411 1545,387C1665,355 1821,280 1910,212C1946,185 2010,126 2054,81L2132,0L2256,0C2324,0 2380,2 2380,5C2380,7 2375,20 2369,33C2360,52 2362,65 2378,96C2451,238 2658,243 2737,105C2759,66 2760,55 2745,18C2738,1 2748,0 2864,0L2990,0L3032,47C3200,234 3381,341 3630,402C3665,410 3744,415 3845,414C3986,414 4017,411 4105,387C4225,355 4381,280 4470,212C4506,185 4570,126 4614,81L4692,0L4816,0C4884,0 4940,2 4940,5C4940,7 4935,20 4929,33C4910,74 4956,147 5020,180C5124,233 5243,201 5297,105C5319,66 5320,55 5305,18C5298,1 5308,0 5424,0L5550,0L5592,47C5766,238 5940,341 6190,402C6225,410 6304,415 6405,414C6546,414 6577,411 6665,387C6785,355 6941,280 7030,212C7066,185 7130,126 7174,81L7252,0L7377,0C7492,0 7502,1 7495,17C7480,55 7481,66 7503,105C7556,198 7676,233 7775,183C7819,161 7840,140 7862,96C7878,65 7880,52 7871,33C7865,20 7860,7 7860,5C7860,2 7916,0 7985,0L8110,0L8152,47C8326,238 8500,341 8750,402C8785,410 8864,415 8965,414C9106,414 9137,411 9225,387C9345,355 9501,280 9590,212C9626,185 9690,126 9734,81L9812,0L9936,0C10004,0 10060,2 10060,5C10060,7 10055,20 10049,33C10040,52 10042,65 10058,96C10131,238 10338,243 10417,105C10439,66 10440,55 10425,18C10418,1 10428,0 10544,0L10670,0L10712,47C10886,238 11060,341 11310,402C11345,410 11424,415 11525,414C11666,414 11697,411 11785,387C11905,355 12061,280 12150,212C12186,185 12250,126 12294,81L12372,0L12497,0C12612,0 12622,1 12615,17C12600,55 12601,66 12623,105C12650,152 12698,187 12757,202L12800,212L12800,427L12743,418C12661,405 12569,359 12505,299C12451,248 12451,248 12427,266C12361,319 12300,376 12300,385C12300,400 12397,492 12453,530C12519,574 12603,607 12686,620C12724,627 12765,634 12778,636C12799,640 12800,644 12800,745C12800,867 12811,860 12667,835C12478,802 12343,732 12201,592L12106,500L12016,538C11967,560 11924,582 11923,587C11918,600 12005,705 12074,770C12184,875 12333,964 12470,1008C12547,1033 12695,1060 12756,1060L12800,1060L12800,1283L12715,1276L12630,1270L12614,1304C12598,1336 12598,1340 12621,1381C12649,1431 12696,1466 12757,1482L12800,1492L12800,1707L12743,1698C12661,1685 12569,1639 12505,1579C12451,1528 12451,1528 12427,1546C12361,1599 12300,1656 12300,1665C12300,1680 12397,1772 12453,1810C12519,1854 12603,1887 12686,1900C12724,1907 12765,1914 12778,1916C12799,1920 12800,1924 12800,2025C12800,2147 12811,2140 12667,2115C12478,2082 12343,2012 12201,1872L12106,1780L12016,1818C11967,1840 11924,1862 11923,1867C11918,1880 12005,1985 12074,2050C12184,2155 12333,2244 12470,2288C12547,2313 12695,2340 12756,2340L12800,2340L12800,2563L12715,2556L12630,2550L12614,2584C12598,2616 12598,2620 12621,2661C12649,2711 12696,2746 12757,2762L12800,2772L12800,2987L12743,2978C12661,2965 12569,2919 12505,2859C12451,2808 12451,2808 12427,2826C12361,2879 12300,2936 12300,2945C12300,2960 12397,3052 12453,3090C12519,3134 12603,3167 12686,3180C12724,3187 12765,3194 12778,3196C12799,3200 12800,3204 12800,3305C12800,3427 12811,3420 12667,3395C12478,3362 12343,3292 12201,3152L12106,3060L12016,3098C11967,3120 11924,3142 11923,3147C11918,3160 12005,3265 12074,3330C12184,3435 12333,3524 12470,3568C12547,3593 12695,3620 12756,3620L12800,3620L12800,3843L12715,3836L12630,3830L12614,3864C12598,3896 12598,3900 12621,3941C12649,3991 12696,4026 12757,4042L12800,4052L12800,4267L12743,4258C12661,4245 12569,4199 12505,4139C12451,4088 12451,4088 12427,4106C12361,4159 12300,4216 12300,4225C12300,4240 12397,4332 12453,4370C12519,4414 12603,4447 12686,4460C12724,4467 12765,4474 12778,4476C12799,4480 12800,4484 12800,4585C12800,4707 12811,4700 12667,4675C12478,4642 12343,4572 12201,4432L12106,4340L12016,4378C11967,4400 11924,4422 11923,4427C11918,4440 12005,4545 12074,4610C12184,4715 12333,4804 12470,4848C12547,4873 12695,4900 12756,4900L12800,4900L12800,5123L12715,5116L12630,5110L12614,5144C12598,5176 12598,5180 12621,5221C12649,5271 12696,5306 12757,5322L12800,5332L12800,5547L12743,5538C12661,5525 12569,5479 12505,5419C12451,5368 12451,5368 12427,5386C12361,5439 12300,5496 12300,5505C12300,5520 12397,5612 12453,5650C12519,5694 12603,5727 12686,5740C12724,5747 12765,5754 12778,5756C12799,5760 12800,5764 12800,5865C12800,5987 12811,5980 12667,5955C12478,5922 12343,5852 12201,5712L12106,5620L12016,5658C11967,5680 11924,5702 11923,5707C11918,5720 12005,5825 12074,5890C12184,5995 12333,6084 12470,6128C12547,6153 12695,6180 12756,6180L12800,6180L12800,6397L12585,6399L12370,6400L12386,6374C12407,6343 12404,6340 12310,6300C12269,6283 12230,6266 12224,6264C12218,6261 12182,6291 12145,6330L12076,6400L10962,6400L10896,6329L10829,6259L10742,6296C10694,6316 10651,6336 10646,6341C10641,6346 10644,6359 10653,6374L10669,6398L9811,6398L9827,6374C9847,6343 9844,6340 9750,6300C9709,6283 9670,6266 9663,6264C9657,6261 9621,6290 9584,6329L9517,6400L8402,6400L8336,6329L8269,6259L8182,6296C8134,6316 8091,6336 8086,6341C8081,6346 8084,6359 8093,6374L8109,6398L7251,6398L7267,6374C7287,6343 7284,6340 7190,6300C7149,6283 7110,6266 7103,6264C7097,6261 7061,6290 7024,6329L6957,6400L5842,6400L5776,6329L5709,6259L5622,6296C5574,6316 5531,6336 5526,6341C5521,6346 5524,6359 5533,6374L5549,6398L4691,6398L4707,6374C4727,6343 4724,6340 4630,6300C4589,6283 4550,6266 4543,6264C4537,6261 4501,6290 4464,6329L4397,6400L3282,6400L3216,6329L3149,6259L3062,6296C3014,6316 2971,6336 2966,6341C2961,6346 2964,6359 2973,6374L2989,6398L2131,6398L2147,6374C2167,6343 2164,6340 2070,6300C2029,6283 1990,6266 1983,6264C1977,6261 1941,6290 1904,6329L1837,6400L722,6400L656,6329L589,6259L502,6296C454,6316 411,6336 406,6341C401,6346 404,6360 414,6374L430,6400L215,6399L0,6397ZM1480,6361C1567,6331 1676,6262 1733,6201C1759,6173 1780,6147 1780,6143C1780,6136 1712,6074 1653,6026C1629,6008 1629,6008 1577,6057C1475,6152 1389,6185 1255,6178C1153,6173 1064,6134 985,6060C923,6001 933,5999 836,6087C770,6145 770,6148 842,6216C914,6286 1020,6345 1125,6375C1202,6397 1397,6389 1480,6361ZM4040,6361C4127,6331 4236,6262 4293,6201C4319,6173 4340,6147 4340,6143C4340,6136 4272,6074 4213,6026C4189,6008 4189,6008 4137,6057C4035,6152 3949,6185 3815,6178C3713,6173 3624,6134 3545,6060C3483,6001 3493,5999 3396,6087C3330,6145 3330,6148 3402,6216C3474,6286 3580,6345 3685,6375C3762,6397 3957,6389 4040,6361ZM6600,6361C6687,6331 6796,6262 6853,6201C6879,6173 6900,6147 6900,6143C6900,6136 6832,6074 6773,6026C6749,6008 6749,6008 6697,6057C6595,6152 6509,6185 6375,6178C6273,6173 6184,6134 6105,6060C6043,6001 6053,5999 5956,6087C5890,6145 5890,6148 5962,6216C6034,6286 6140,6345 6245,6375C6322,6397 6517,6389 6600,6361ZM9160,6361C9247,6331 9356,6262 9413,6201C9439,6173 9460,6147 9460,6143C9460,6136 9392,6074 9333,6026C9309,6008 9309,6008 9257,6057C9155,6152 9069,6185 8935,6178C8833,6173 8744,6134 8665,6060C8603,6001 8613,5999 8516,6087C8450,6145 8450,6148 8522,6216C8594,6286 8700,6345 8805,6375C8882,6397 9077,6389 9160,6361ZM11720,6361C11756,6348 11812,6322 11845,6302C11909,6264 12020,6164 12020,6146C12020,6136 11960,6080 11893,6026C11869,6008 11869,6008 11817,6057C11715,6152 11629,6185 11495,6178C11393,6173 11304,6134 11225,6060C11163,6001 11173,5999 11076,6087C11010,6145 11010,6148 11082,6216C11154,6286 11260,6345 11365,6375C11442,6397 11637,6389 11720,6361ZM2716,6169C2870,6148 3026,6085 3166,5989C3268,5918 3446,5733 3437,5706C3435,5701 3392,5679 3342,5658L3250,5620L3183,5691C3033,5850 2857,5938 2641,5962C2381,5990 2128,5893 1937,5690L1869,5619L1778,5658C1727,5679 1684,5702 1683,5707C1678,5720 1765,5825 1834,5890C2069,6113 2390,6215 2716,6169ZM5276,6169C5430,6148 5586,6085 5726,5989C5828,5918 6006,5733 5997,5706C5995,5701 5952,5679 5902,5658L5810,5620L5743,5691C5551,5894 5278,5996 5023,5961C4821,5933 4669,5858 4521,5712L4426,5620L4336,5658C4287,5680 4244,5702 4243,5707C4238,5720 4325,5825 4394,5890C4629,6113 4950,6215 5276,6169ZM7836,6169C7990,6148 8146,6085 8286,5989C8388,5918 8566,5733 8557,5706C8555,5701 8512,5679 8462,5658L8370,5620L8303,5691C8111,5894 7838,5996 7583,5961C7381,5933 7229,5858 7081,5712L6986,5620L6896,5658C6847,5680 6804,5702 6803,5707C6798,5720 6885,5825 6954,5890C7189,6113 7510,6215 7836,6169ZM10396,6169C10550,6148 10706,6085 10846,5989C10948,5918 11126,5733 11117,5706C11115,5701 11072,5679 11022,5658L10930,5620L10863,5691C10671,5894 10398,5996 10143,5961C9941,5933 9789,5858 9641,5712L9546,5620L9456,5658C9407,5680 9364,5702 9363,5707C9358,5720 9445,5825 9514,5890C9749,6113 10070,6215 10396,6169ZM1373,5944C1419,5921 1439,5900 1462,5856C1481,5818 1482,5814 1466,5786L1450,5755L1110,5755L1094,5786C1078,5816 1078,5819 1101,5860C1155,5957 1274,5994 1373,5944ZM3933,5944C3979,5921 3999,5900 4022,5856C4041,5818 4042,5814 4026,5786L4010,5755L3670,5755L3654,5786C3638,5816 3638,5819 3661,5860C3715,5957 3834,5994 3933,5944ZM6493,5944C6539,5921 6559,5900 6582,5856C6601,5818 6602,5814 6586,5786L6570,5755L6230,5755L6214,5786C6198,5816 6198,5819 6221,5860C6275,5957 6394,5994 6493,5944ZM9053,5944C9099,5921 9119,5900 9142,5856C9161,5818 9162,5814 9146,5786L9130,5755L8790,5755L8774,5786C8758,5816 8758,5819 8781,5860C8835,5957 8954,5994 9053,5944ZM11613,5944C11659,5921 11679,5900 11702,5856C11721,5818 11722,5814 11706,5786L11690,5755L11350,5755L11334,5786C11318,5816 11318,5819 11341,5860C11395,5957 11514,5994 11613,5944ZM2690,5738C2765,5724 2828,5698 2904,5650C2963,5613 3060,5521 3060,5503C3060,5496 2992,5434 2933,5386C2909,5368 2909,5368 2855,5419C2758,5511 2622,5557 2503,5538C2421,5525 2329,5479 2265,5419C2211,5368 2211,5368 2187,5386C2121,5439 2060,5496 2060,5505C2060,5523 2162,5616 2227,5658C2295,5701 2393,5736 2485,5749C2548,5758 2599,5755 2690,5738ZM5250,5738C5325,5724 5388,5698 5464,5650C5523,5613 5620,5521 5620,5503C5620,5496 5552,5434 5493,5386C5469,5368 5469,5368 5415,5419C5318,5511 5182,5557 5063,5538C4981,5525 4889,5479 4825,5419C4771,5368 4771,5368 4747,5386C4681,5439 4620,5496 4620,5505C4620,5523 4722,5616 4787,5658C4855,5701 4953,5736 5045,5749C5108,5758 5159,5755 5250,5738ZM7810,5738C7885,5724 7948,5698 8024,5650C8083,5613 8180,5521 8180,5503C8180,5496 8112,5434 8053,5386C8029,5368 8029,5368 7975,5419C7911,5479 7819,5525 7738,5538C7618,5557 7482,5511 7385,5419C7331,5368 7331,5368 7307,5386C7241,5439 7180,5496 7180,5505C7180,5523 7282,5616 7347,5658C7415,5701 7513,5736 7605,5749C7668,5758 7719,5755 7810,5738ZM10370,5738C10445,5724 10508,5698 10584,5650C10643,5613 10740,5521 10740,5503C10740,5496 10672,5434 10613,5386C10589,5368 10589,5368 10535,5419C10438,5511 10302,5557 10183,5538C10101,5525 10009,5479 9945,5419C9891,5368 9891,5368 9867,5386C9801,5439 9740,5496 9740,5505C9740,5523 9842,5616 9907,5658C9975,5701 10073,5736 10165,5749C10228,5758 10279,5755 10370,5738ZM1550,5505C1733,5456 1873,5375 2016,5237C2117,5141 2169,5074 2154,5061C2149,5056 2111,5038 2070,5020C2029,5003 1990,4986 1983,4984C1977,4981 1939,5013 1898,5055C1729,5233 1519,5324 1280,5324C1041,5324 830,5233 662,5056L589,4979L502,5016C454,5036 411,5056 406,5061C383,5081 546,5259 664,5342C812,5446 943,5498 1150,5534C1164,5537 1238,5537 1315,5535C1425,5532 1476,5525 1550,5505ZM4110,5505C4293,5456 4433,5375 4576,5237C4677,5141 4729,5074 4714,5061C4709,5056 4671,5038 4630,5020C4589,5003 4550,4986 4543,4984C4537,4981 4499,5013 4458,5055C4289,5233 4079,5324 3840,5324C3601,5324 3390,5233 3222,5056L3149,4979L3062,5016C3014,5036 2971,5056 2966,5061C2943,5081 3106,5259 3224,5342C3372,5446 3503,5498 3710,5534C3724,5537 3798,5537 3875,5535C3985,5532 4036,5525 4110,5505ZM6670,5505C6853,5456 6993,5375 7136,5237C7237,5141 7289,5074 7274,5061C7269,5056 7231,5038 7190,5020C7149,5003 7110,4986 7103,4984C7097,4981 7059,5013 7018,5055C6849,5233 6639,5324 6400,5324C6161,5324 5950,5233 5782,5056L5709,4979L5622,5016C5574,5036 5531,5056 5526,5061C5504,5081 5669,5261 5785,5342C5932,5446 6064,5498 6270,5534C6284,5537 6358,5537 6435,5535C6545,5532 6596,5525 6670,5505ZM9230,5505C9413,5456 9553,5375 9696,5237C9797,5141 9849,5074 9834,5061C9829,5056 9791,5038 9750,5020C9709,5003 9670,4986 9663,4984C9657,4981 9619,5013 9578,5055C9409,5233 9199,5324 8960,5324C8721,5324 8510,5233 8342,5056L8269,4979L8182,5016C8134,5036 8091,5056 8086,5061C8064,5081 8229,5261 8345,5342C8492,5446 8624,5498 8830,5534C8844,5537 8918,5537 8995,5535C9105,5532 9156,5525 9230,5505ZM11790,5505C11973,5456 12113,5375 12256,5237C12357,5141 12409,5074 12394,5061C12389,5056 12351,5038 12310,5020C12269,5003 12230,4986 12224,4984C12218,4981 12180,5014 12139,5056C11966,5234 11759,5324 11520,5324C11281,5324 11070,5233 10902,5056L10829,4979L10742,5016C10694,5036 10651,5056 10646,5061C10624,5081 10789,5261 10905,5342C11052,5446 11184,5498 11390,5534C11404,5537 11478,5537 11555,5535C11665,5532 11716,5525 11790,5505ZM2659,5300C2702,5279 2730,5247 2749,5201C2759,5177 2759,5167 2747,5144L2733,5117L2387,5115L2372,5146C2358,5176 2359,5181 2381,5221C2437,5320 2554,5354 2659,5300ZM5219,5300C5262,5279 5290,5247 5309,5201C5319,5177 5319,5167 5307,5144L5293,5117L4947,5115L4932,5146C4918,5176 4919,5181 4941,5221C4997,5320 5114,5354 5219,5300ZM7779,5300C7822,5279 7850,5247 7869,5201C7879,5177 7879,5167 7867,5144L7853,5117L7507,5115L7492,5146C7478,5176 7479,5181 7501,5221C7557,5320 7674,5354 7779,5300ZM10339,5300C10382,5279 10410,5247 10429,5201C10439,5177 10439,5167 10427,5144L10413,5117L10067,5115L10052,5146C10038,5176 10039,5181 10061,5221C10117,5320 10234,5354 10339,5300ZM1480,5081C1567,5051 1676,4982 1733,4921C1759,4893 1780,4867 1780,4863C1780,4856 1712,4794 1653,4746C1629,4728 1629,4728 1577,4777C1475,4872 1389,4905 1255,4898C1153,4893 1064,4854 985,4780C923,4721 933,4719 836,4807C770,4865 770,4868 842,4936C914,5006 1020,5065 1125,5095C1202,5117 1397,5109 1480,5081ZM4040,5081C4127,5051 4236,4982 4293,4921C4319,4893 4340,4867 4340,4863C4340,4856 4272,4794 4213,4746C4189,4728 4189,4728 4137,4777C4035,4872 3949,4905 3815,4898C3713,4893 3624,4854 3545,4780C3483,4721 3493,4719 3396,4807C3330,4865 3330,4868 3402,4936C3474,5006 3580,5065 3685,5095C3762,5117 3957,5109 4040,5081ZM6600,5081C6687,5051 6796,4982 6853,4921C6879,4893 6900,4867 6900,4863C6900,4856 6832,4794 6773,4746C6749,4728 6749,4728 6697,4777C6595,4872 6509,4905 6375,4898C6273,4893 6184,4854 6105,4780C6043,4721 6053,4719 5956,4807C5890,4865 5890,4868 5962,4936C6034,5006 6140,5065 6245,5095C6322,5117 6517,5109 6600,5081ZM9160,5081C9247,5051 9356,4982 9413,4921C9439,4893 9460,4867 9460,4863C9460,4856 9392,4794 9333,4746C9309,4728 9309,4728 9257,4777C9155,4872 9069,4905 8935,4898C8833,4893 8744,4854 8665,4780C8603,4721 8613,4719 8516,4807C8450,4865 8450,4868 8522,4936C8594,5006 8700,5065 8805,5095C8882,5117 9077,5109 9160,5081ZM11720,5081C11756,5068 11812,5042 11845,5022C11909,4984 12020,4884 12020,4866C12020,4856 11960,4800 11893,4746C11869,4728 11869,4728 11817,4777C11715,4872 11629,4905 11495,4898C11393,4893 11304,4854 11225,4780C11163,4721 11173,4719 11076,4807C11010,4865 11010,4868 11082,4936C11154,5006 11260,5065 11365,5095C11442,5117 11637,5109 11720,5081ZM2716,4889C2870,4868 3026,4805 3166,4709C3268,4638 3446,4453 3437,4426C3435,4421 3392,4399 3342,4378L3250,4340L3183,4411C3033,4570 2857,4658 2641,4682C2381,4710 2128,4613 1937,4410L1869,4339L1778,4378C1727,4399 1684,4422 1683,4427C1678,4440 1765,4545 1834,4610C2069,4833 2390,4935 2716,4889ZM5276,4889C5430,4868 5586,4805 5726,4709C5828,4638 6006,4453 5997,4426C5995,4421 5952,4399 5902,4378L5810,4340L5743,4411C5551,4614 5278,4716 5023,4681C4821,4653 4669,4578 4521,4432L4426,4340L4336,4378C4287,4400 4244,4422 4243,4427C4238,4440 4325,4545 4394,4610C4629,4833 4950,4935 5276,4889ZM7836,4889C7990,4868 8146,4805 8286,4709C8388,4638 8566,4453 8557,4426C8555,4421 8512,4399 8462,4378L8370,4340L8303,4411C8111,4614 7838,4716 7583,4681C7381,4653 7229,4578 7081,4432L6986,4340L6896,4378C6847,4400 6804,4422 6803,4427C6798,4440 6885,4545 6954,4610C7189,4833 7510,4935 7836,4889ZM10396,4889C10550,4868 10706,4805 10846,4709C10948,4638 11126,4453 11117,4426C11115,4421 11072,4399 11022,4378L10930,4340L10863,4411C10671,4614 10398,4716 10143,4681C9941,4653 9789,4578 9641,4432L9546,4340L9456,4378C9407,4400 9364,4422 9363,4427C9358,4440 9445,4545 9514,4610C9749,4833 10070,4935 10396,4889ZM1373,4664C1419,4641 1439,4620 1462,4576C1481,4538 1482,4534 1466,4506L1450,4475L1110,4475L1094,4506C1078,4536 1078,4539 1101,4580C1155,4677 1274,4714 1373,4664ZM3933,4664C3979,4641 3999,4620 4022,4576C4041,4538 4042,4534 4026,4506L4010,4475L3670,4475L3654,4506C3638,4536 3638,4539 3661,4580C3715,4677 3834,4714 3933,4664ZM6493,4664C6539,4641 6559,4620 6582,4576C6601,4538 6602,4534 6586,4506L6570,4475L6230,4475L6214,4506C6198,4536 6198,4539 6221,4580C6275,4677 6394,4714 6493,4664ZM9053,4664C9099,4641 9119,4620 9142,4576C9161,4538 9162,4534 9146,4506L9130,4475L8790,4475L8774,4506C8758,4536 8758,4539 8781,4580C8835,4677 8954,4714 9053,4664ZM11613,4664C11659,4641 11679,4620 11702,4576C11721,4538 11722,4534 11706,4506L11690,4475L11350,4475L11334,4506C11318,4536 11318,4539 11341,4580C11395,4677 11514,4714 11613,4664ZM2690,4458C2765,4444 2828,4418 2904,4370C2963,4333 3060,4241 3060,4223C3060,4216 2992,4154 2933,4106C2909,4088 2909,4088 2855,4139C2684,4301 2436,4301 2265,4139C2211,4088 2211,4088 2187,4106C2121,4159 2060,4216 2060,4225C2060,4243 2162,4336 2227,4378C2295,4421 2393,4456 2485,4469C2548,4478 2599,4475 2690,4458ZM5250,4458C5325,4444 5388,4418 5464,4370C5523,4333 5620,4241 5620,4223C5620,4216 5552,4154 5493,4106C5469,4088 5469,4088 5415,4139C5244,4301 4996,4301 4825,4139C4771,4088 4771,4088 4747,4106C4681,4159 4620,4216 4620,4225C4620,4243 4722,4336 4787,4378C4855,4421 4953,4456 5045,4469C5108,4478 5159,4475 5250,4458ZM7810,4458C7885,4444 7948,4418 8024,4370C8083,4333 8180,4241 8180,4223C8180,4216 8112,4154 8053,4106C8029,4088 8029,4088 7975,4139C7804,4301 7556,4301 7385,4139C7331,4088 7331,4088 7307,4106C7241,4159 7180,4216 7180,4225C7180,4243 7282,4336 7347,4378C7415,4421 7513,4456 7605,4469C7668,4478 7719,4475 7810,4458ZM10370,4458C10445,4444 10508,4418 10584,4370C10643,4333 10740,4241 10740,4223C10740,4216 10672,4154 10613,4106C10589,4088 10589,4088 10535,4139C10364,4301 10116,4301 9945,4139C9891,4088 9891,4088 9867,4106C9801,4159 9740,4216 9740,4225C9740,4243 9842,4336 9907,4378C9975,4421 10073,4456 10165,4469C10228,4478 10279,4475 10370,4458ZM1550,4225C1733,4176 1873,4095 2016,3957C2117,3861 2169,3794 2154,3781C2149,3776 2111,3758 2070,3740C2029,3723 1990,3706 1983,3704C1977,3701 1939,3733 1898,3775C1729,3953 1519,4044 1280,4044C1041,4044 830,3953 662,3776L589,3699L502,3736C454,3756 411,3776 406,3781C383,3801 546,3979 664,4062C812,4166 943,4218 1150,4254C1164,4257 1238,4257 1315,4255C1425,4252 1476,4245 1550,4225ZM4110,4225C4293,4176 4433,4095 4576,3957C4677,3861 4729,3794 4714,3781C4709,3776 4671,3758 4630,3740C4589,3723 4550,3706 4543,3704C4537,3701 4499,3733 4458,3775C4289,3953 4079,4044 3840,4044C3601,4044 3390,3953 3222,3776L3149,3699L3062,3736C3014,3756 2971,3776 2966,3781C2943,3801 3106,3979 3224,4062C3372,4166 3503,4218 3710,4254C3724,4257 3798,4257 3875,4255C3985,4252 4036,4245 4110,4225ZM6670,4225C6853,4176 6993,4095 7136,3957C7237,3861 7289,3794 7274,3781C7269,3776 7231,3758 7190,3740C7149,3723 7110,3706 7103,3704C7097,3701 7059,3733 7018,3775C6849,3953 6639,4044 6400,4044C6161,4044 5950,3953 5782,3776L5709,3699L5622,3736C5574,3756 5531,3776 5526,3781C5504,3801 5669,3981 5785,4062C5932,4166 6064,4218 6270,4254C6284,4257 6358,4257 6435,4255C6545,4252 6596,4245 6670,4225ZM9230,4225C9413,4176 9553,4095 9696,3957C9797,3861 9849,3794 9834,3781C9829,3776 9791,3758 9750,3740C9709,3723 9670,3706 9663,3704C9657,3701 9619,3733 9578,3775C9409,3953 9199,4044 8960,4044C8721,4044 8510,3953 8342,3776L8269,3699L8182,3736C8134,3756 8091,3776 8086,3781C8064,3801 8229,3981 8345,4062C8492,4166 8624,4218 8830,4254C8844,4257 8918,4257 8995,4255C9105,4252 9156,4245 9230,4225ZM11790,4225C11973,4176 12113,4095 12256,3957C12357,3861 12409,3794 12394,3781C12389,3776 12351,3758 12310,3740C12269,3723 12230,3706 12224,3704C12218,3701 12180,3734 12139,3776C11966,3954 11759,4044 11520,4044C11281,4044 11070,3953 10902,3776L10829,3699L10742,3736C10694,3756 10651,3776 10646,3781C10624,3801 10789,3981 10905,4062C11052,4166 11184,4218 11390,4254C11404,4257 11478,4257 11555,4255C11665,4252 11716,4245 11790,4225ZM2659,4020C2702,3999 2730,3967 2749,3921C2759,3897 2759,3887 2747,3864L2733,3837L2387,3835L2372,3866C2358,3896 2359,3901 2381,3941C2437,4040 2554,4074 2659,4020ZM5219,4020C5262,3999 5290,3967 5309,3921C5319,3897 5319,3887 5307,3864L5293,3837L4947,3835L4932,3866C4918,3896 4919,3901 4941,3941C4997,4040 5114,4074 5219,4020ZM7779,4020C7822,3999 7850,3967 7869,3921C7879,3897 7879,3887 7867,3864L7853,3837L7507,3835L7492,3866C7478,3896 7479,3901 7501,3941C7557,4040 7674,4074 7779,4020ZM10339,4020C10382,3999 10410,3967 10429,3921C10439,3897 10439,3887 10427,3864L10413,3837L10067,3835L10052,3866C10038,3896 10039,3901 10061,3941C10117,4040 10234,4074 10339,4020ZM1480,3801C1567,3771 1676,3702 1733,3641C1759,3613 1780,3587 1780,3583C1780,3576 1712,3514 1653,3466C1629,3448 1629,3448 1577,3497C1475,3592 1389,3625 1255,3618C1153,3613 1064,3574 985,3500C923,3441 933,3439 836,3527C770,3585 770,3588 842,3656C914,3726 1020,3785 1125,3815C1202,3837 1397,3829 1480,3801ZM4040,3801C4127,3771 4236,3702 4293,3641C4319,3613 4340,3587 4340,3583C4340,3576 4272,3514 4213,3466C4189,3448 4189,3448 4137,3497C4035,3592 3949,3625 3815,3618C3713,3613 3624,3574 3545,3500C3483,3441 3493,3439 3396,3527C3330,3585 3330,3588 3402,3656C3474,3726 3580,3785 3685,3815C3762,3837 3957,3829 4040,3801ZM6600,3801C6687,3771 6796,3702 6853,3641C6879,3613 6900,3587 6900,3583C6900,3576 6832,3514 6773,3466C6749,3448 6749,3448 6697,3497C6595,3592 6509,3625 6375,3618C6273,3613 6184,3574 6105,3500C6043,3441 6053,3439 5956,3527C5890,3585 5890,3588 5962,3656C6034,3726 6140,3785 6245,3815C6322,3837 6517,3829 6600,3801ZM9160,3801C9247,3771 9356,3702 9413,3641C9439,3613 9460,3587 9460,3583C9460,3576 9392,3514 9333,3466C9309,3448 9309,3448 9257,3497C9155,3592 9069,3625 8935,3618C8833,3613 8744,3574 8665,3500C8603,3441 8613,3439 8516,3527C8450,3585 8450,3588 8522,3656C8594,3726 8700,3785 8805,3815C8882,3837 9077,3829 9160,3801ZM11720,3801C11756,3788 11812,3762 11845,3742C11909,3704 12020,3604 12020,3586C12020,3576 11960,3520 11893,3466C11869,3448 11869,3448 11817,3497C11715,3592 11629,3625 11495,3618C11393,3613 11304,3574 11225,3500C11163,3441 11173,3439 11076,3527C11010,3585 11010,3588 11082,3656C11154,3726 11260,3785 11365,3815C11442,3837 11637,3829 11720,3801ZM2716,3609C2870,3588 3026,3525 3166,3429C3268,3358 3446,3173 3437,3146C3435,3141 3392,3119 3342,3098L3250,3060L3183,3131C3033,3290 2857,3378 2641,3402C2381,3430 2128,3333 1937,3130L1869,3059L1778,3098C1727,3119 1684,3142 1683,3147C1678,3160 1765,3265 1834,3330C2069,3553 2390,3655 2716,3609ZM5276,3609C5430,3588 5586,3525 5726,3429C5828,3358 6006,3173 5997,3146C5995,3141 5952,3119 5902,3098L5810,3060L5743,3131C5551,3334 5278,3436 5023,3401C4821,3373 4669,3298 4521,3152L4426,3060L4336,3098C4287,3120 4244,3142 4243,3147C4238,3160 4325,3265 4394,3330C4629,3553 4950,3655 5276,3609ZM7836,3609C7990,3588 8146,3525 8286,3429C8388,3358 8566,3173 8557,3146C8555,3141 8512,3119 8462,3098L8370,3060L8303,3131C8111,3334 7838,3436 7583,3401C7381,3373 7229,3298 7081,3152L6986,3060L6896,3098C6847,3120 6804,3142 6803,3147C6798,3160 6885,3265 6954,3330C7189,3553 7510,3655 7836,3609ZM10396,3609C10550,3588 10706,3525 10846,3429C10948,3358 11126,3173 11117,3146C11115,3141 11072,3119 11022,3098L10930,3060L10863,3131C10671,3334 10398,3436 10143,3401C9941,3373 9789,3298 9641,3152L9546,3060L9456,3098C9407,3120 9364,3142 9363,3147C9358,3160 9445,3265 9514,3330C9749,3553 10070,3655 10396,3609ZM1373,3384C1419,3361 1439,3340 1462,3296C1481,3258 1482,3254 1466,3226L1450,3195L1110,3195L1094,3226C1078,3256 1078,3259 1101,3300C1155,3397 1274,3434 1373,3384ZM3933,3384C3979,3361 3999,3340 4022,3296C4041,3258 4042,3254 4026,3226L4010,3195L3670,3195L3654,3226C3638,3256 3638,3259 3661,3300C3715,3397 3834,3434 3933,3384ZM6493,3384C6539,3361 6559,3340 6582,3296C6601,3258 6602,3254 6586,3226L6570,3195L6230,3195L6214,3226C6198,3256 6198,3259 6221,3300C6275,3397 6394,3434 6493,3384ZM9053,3384C9099,3361 9119,3340 9142,3296C9161,3258 9162,3254 9146,3226L9130,3195L8790,3195L8774,3226C8758,3256 8758,3259 8781,3300C8835,3397 8954,3434 9053,3384ZM11613,3384C11659,3361 11679,3340 11702,3296C11721,3258 11722,3254 11706,3226L11690,3195L11350,3195L11334,3226C11318,3256 11318,3259 11341,3300C11395,3397 11514,3434 11613,3384ZM2690,3178C2765,3164 2828,3138 2904,3090C2963,3053 3060,2961 3060,2943C3060,2936 2992,2874 2933,2826C2909,2808 2909,2808 2855,2859C2684,3021 2436,3021 2265,2859C2211,2808 2211,2808 2187,2826C2121,2879 2060,2936 2060,2945C2060,2963 2162,3056 2227,3098C2295,3141 2393,3176 2485,3189C2548,3198 2599,3195 2690,3178ZM5250,3178C5325,3164 5388,3138 5464,3090C5523,3053 5620,2961 5620,2943C5620,2936 5552,2874 5493,2826C5469,2808 5469,2808 5415,2859C5244,3021 4996,3021 4825,2859C4771,2808 4771,2808 4747,2826C4681,2879 4620,2936 4620,2945C4620,2963 4722,3056 4787,3098C4855,3141 4953,3176 5045,3189C5108,3198 5159,3195 5250,3178ZM7810,3178C7885,3164 7948,3138 8024,3090C8083,3053 8180,2961 8180,2943C8180,2936 8112,2874 8053,2826C8029,2808 8029,2808 7975,2859C7804,3021 7556,3021 7385,2859C7331,2808 7331,2808 7307,2826C7241,2879 7180,2936 7180,2945C7180,2963 7282,3056 7347,3098C7415,3141 7513,3176 7605,3189C7668,3198 7719,3195 7810,3178ZM10370,3178C10445,3164 10508,3138 10584,3090C10643,3053 10740,2961 10740,2943C10740,2936 10672,2874 10613,2826C10589,2808 10589,2808 10535,2859C10364,3021 10116,3021 9945,2859C9891,2808 9891,2808 9867,2826C9801,2879 9740,2936 9740,2945C9740,2963 9842,3056 9907,3098C9975,3141 10073,3176 10165,3189C10228,3198 10279,3195 10370,3178ZM1550,2945C1733,2896 1873,2815 2016,2677C2117,2581 2169,2514 2154,2501C2149,2496 2111,2478 2070,2460C2029,2443 1990,2426 1983,2424C1977,2421 1939,2453 1898,2495C1729,2673 1519,2764 1280,2764C1041,2764 830,2673 662,2496L589,2419L502,2456C454,2476 411,2496 406,2501C383,2521 546,2699 664,2782C812,2886 943,2938 1150,2974C1164,2977 1238,2977 1315,2975C1425,2972 1476,2965 1550,2945ZM4110,2945C4293,2896 4433,2815 4576,2677C4677,2581 4729,2514 4714,2501C4709,2496 4671,2478 4630,2460C4589,2443 4550,2426 4543,2424C4537,2421 4499,2453 4458,2495C4289,2673 4079,2764 3840,2764C3601,2764 3390,2673 3222,2496L3149,2419L3062,2456C3014,2476 2971,2496 2966,2501C2943,2521 3106,2699 3224,2782C3372,2886 3503,2938 3710,2974C3724,2977 3798,2977 3875,2975C3985,2972 4036,2965 4110,2945ZM6670,2945C6853,2896 6993,2815 7136,2677C7237,2581 7289,2514 7274,2501C7269,2496 7231,2478 7190,2460C7149,2443 7110,2426 7103,2424C7097,2421 7059,2453 7018,2495C6849,2673 6639,2764 6400,2764C6161,2764 5950,2673 5782,2496L5709,2419L5622,2456C5574,2476 5531,2496 5526,2501C5504,2521 5669,2701 5785,2782C5932,2886 6064,2938 6270,2974C6284,2977 6358,2977 6435,2975C6545,2972 6596,2965 6670,2945ZM9230,2945C9413,2896 9553,2815 9696,2677C9797,2581 9849,2514 9834,2501C9829,2496 9791,2478 9750,2460C9709,2443 9670,2426 9663,2424C9657,2421 9619,2453 9578,2495C9409,2673 9199,2764 8960,2764C8721,2764 8510,2673 8342,2496L8269,2419L8182,2456C8134,2476 8091,2496 8086,2501C8064,2521 8229,2701 8345,2782C8492,2886 8624,2938 8830,2974C8844,2977 8918,2977 8995,2975C9105,2972 9156,2965 9230,2945ZM11790,2945C11973,2896 12113,2815 12256,2677C12357,2581 12409,2514 12394,2501C12389,2496 12351,2478 12310,2460C12269,2443 12230,2426 12224,2424C12218,2421 12180,2454 12139,2496C11966,2674 11759,2764 11520,2764C11281,2764 11070,2673 10902,2496L10829,2419L10742,2456C10694,2476 10651,2496 10646,2501C10624,2521 10789,2701 10905,2782C11052,2886 11184,2938 11390,2974C11404,2977 11478,2977 11555,2975C11665,2972 11716,2965 11790,2945ZM2659,2740C2702,2719 2730,2687 2749,2641C2759,2617 2759,2607 2747,2584L2733,2557L2387,2555L2372,2586C2358,2616 2359,2621 2381,2661C2437,2760 2554,2794 2659,2740ZM5219,2740C5262,2719 5290,2687 5309,2641C5319,2617 5319,2607 5307,2584L5293,2557L4947,2555L4932,2586C4918,2616 4919,2621 4941,2661C4997,2760 5114,2794 5219,2740ZM7779,2740C7822,2719 7850,2687 7869,2641C7879,2617 7879,2607 7867,2584L7853,2557L7507,2555L7492,2586C7478,2616 7479,2621 7501,2661C7557,2760 7674,2794 7779,2740ZM10339,2740C10382,2719 10410,2687 10429,2641C10439,2617 10439,2607 10427,2584L10413,2557L10067,2555L10052,2586C10038,2616 10039,2621 10061,2661C10117,2760 10234,2794 10339,2740ZM1480,2521C1567,2491 1676,2422 1733,2361C1759,2333 1780,2307 1780,2303C1780,2296 1712,2234 1653,2186C1629,2168 1629,2168 1577,2217C1475,2312 1389,2345 1255,2338C1153,2333 1064,2294 985,2220C923,2161 933,2159 836,2247C770,2305 770,2308 842,2376C914,2446 1020,2505 1125,2535C1202,2557 1397,2549 1480,2521ZM4040,2521C4127,2491 4236,2422 4293,2361C4319,2333 4340,2307 4340,2303C4340,2296 4272,2234 4213,2186C4189,2168 4189,2168 4137,2217C4035,2312 3949,2345 3815,2338C3713,2333 3624,2294 3545,2220C3483,2161 3493,2159 3396,2247C3330,2305 3330,2308 3402,2376C3474,2446 3580,2505 3685,2535C3762,2557 3957,2549 4040,2521ZM6600,2521C6687,2491 6796,2422 6853,2361C6879,2333 6900,2307 6900,2303C6900,2296 6832,2234 6773,2186C6749,2168 6749,2168 6697,2217C6595,2312 6509,2345 6375,2338C6273,2333 6184,2294 6105,2220C6043,2161 6053,2159 5956,2247C5890,2305 5890,2308 5962,2376C6034,2446 6140,2505 6245,2535C6322,2557 6517,2549 6600,2521ZM9160,2521C9247,2491 9356,2422 9413,2361C9439,2333 9460,2307 9460,2303C9460,2296 9392,2234 9333,2186C9309,2168 9309,2168 9257,2217C9155,2312 9069,2345 8935,2338C8833,2333 8744,2294 8665,2220C8603,2161 8613,2159 8516,2247C8450,2305 8450,2308 8522,2376C8594,2446 8700,2505 8805,2535C8882,2557 9077,2549 9160,2521ZM11720,2521C11756,2508 11812,2482 11845,2462C11909,2424 12020,2324 12020,2306C12020,2296 11960,2240 11893,2186C11869,2168 11869,2168 11817,2217C11715,2312 11629,2345 11495,2338C11393,2333 11304,2294 11225,2220C11163,2161 11173,2159 11076,2247C11010,2305 11010,2308 11082,2376C11154,2446 11260,2505 11365,2535C11442,2557 11637,2549 11720,2521ZM2716,2329C2870,2308 3026,2245 3166,2149C3268,2078 3446,1893 3437,1866C3435,1861 3392,1839 3342,1818L3250,1780L3183,1851C3033,2010 2857,2098 2641,2122C2381,2150 2128,2053 1937,1850L1869,1779L1778,1818C1727,1839 1684,1862 1683,1867C1678,1880 1765,1985 1834,2050C2069,2273 2390,2375 2716,2329ZM5276,2329C5430,2308 5586,2245 5726,2149C5828,2078 6006,1893 5997,1866C5995,1861 5952,1839 5902,1818L5810,1780L5743,1851C5551,2054 5278,2156 5023,2121C4821,2093 4669,2018 4521,1872L4426,1780L4336,1818C4287,1840 4244,1862 4243,1867C4238,1880 4325,1985 4394,2050C4629,2273 4950,2375 5276,2329ZM7836,2329C7990,2308 8146,2245 8286,2149C8388,2078 8566,1893 8557,1866C8555,1861 8512,1839 8462,1818L8370,1780L8303,1851C8111,2054 7838,2156 7583,2121C7381,2093 7229,2018 7081,1872L6986,1780L6896,1818C6847,1840 6804,1862 6803,1867C6798,1880 6885,1985 6954,2050C7189,2273 7510,2375 7836,2329ZM10396,2329C10550,2308 10706,2245 10846,2149C10948,2078 11126,1893 11117,1866C11115,1861 11072,1839 11022,1818L10930,1780L10863,1851C10671,2054 10398,2156 10143,2121C9941,2093 9789,2018 9641,1872L9546,1780L9456,1818C9407,1840 9364,1862 9363,1867C9358,1880 9445,1985 9514,2050C9749,2273 10070,2375 10396,2329ZM1373,2104C1419,2081 1439,2060 1462,2016C1481,1978 1482,1974 1466,1946L1450,1915L1110,1915L1094,1946C1078,1976 1078,1979 1101,2020C1155,2117 1274,2154 1373,2104ZM3933,2104C3979,2081 3999,2060 4022,2016C4041,1978 4042,1974 4026,1946L4010,1915L3670,1915L3654,1946C3638,1976 3638,1979 3661,2020C3715,2117 3834,2154 3933,2104ZM6493,2104C6539,2081 6559,2060 6582,2016C6601,1978 6602,1974 6586,1946L6570,1915L6230,1915L6214,1946C6198,1976 6198,1979 6221,2020C6275,2117 6394,2154 6493,2104ZM9053,2104C9099,2081 9119,2060 9142,2016C9161,1978 9162,1974 9146,1946L9130,1915L8790,1915L8774,1946C8758,1976 8758,1979 8781,2020C8835,2117 8954,2154 9053,2104ZM11613,2104C11659,2081 11679,2060 11702,2016C11721,1978 11722,1974 11706,1946L11690,1915L11350,1915L11334,1946C11318,1976 11318,1979 11341,2020C11395,2117 11514,2154 11613,2104ZM2690,1898C2765,1884 2828,1858 2904,1810C2963,1773 3060,1681 3060,1663C3060,1656 2992,1594 2933,1546C2909,1528 2909,1528 2855,1579C2791,1639 2699,1685 2618,1698C2498,1717 2362,1671 2265,1579C2211,1528 2211,1528 2187,1546C2121,1599 2060,1656 2060,1665C2060,1683 2162,1776 2227,1818C2295,1861 2393,1896 2485,1909C2548,1918 2599,1915 2690,1898ZM5250,1898C5325,1884 5388,1858 5464,1810C5523,1773 5620,1681 5620,1663C5620,1656 5552,1594 5493,1546C5469,1528 5469,1528 5415,1579C5318,1671 5182,1717 5063,1698C4981,1685 4889,1639 4825,1579C4771,1528 4771,1528 4747,1546C4681,1599 4620,1656 4620,1665C4620,1683 4722,1776 4787,1818C4855,1861 4953,1896 5045,1909C5108,1918 5159,1915 5250,1898ZM7810,1898C7885,1884 7948,1858 8024,1810C8083,1773 8180,1681 8180,1663C8180,1656 8112,1594 8053,1546C8029,1528 8029,1528 7975,1579C7911,1639 7819,1685 7738,1698C7618,1717 7482,1671 7385,1579C7331,1528 7331,1528 7307,1546C7241,1599 7180,1656 7180,1665C7180,1683 7282,1776 7347,1818C7415,1861 7513,1896 7605,1909C7668,1918 7719,1915 7810,1898ZM10370,1898C10445,1884 10508,1858 10584,1810C10643,1773 10740,1681 10740,1663C10740,1656 10672,1594 10613,1546C10589,1528 10589,1528 10535,1579C10438,1671 10302,1717 10183,1698C10101,1685 10009,1639 9945,1579C9891,1528 9891,1528 9867,1546C9801,1599 9740,1656 9740,1665C9740,1683 9842,1776 9907,1818C9975,1861 10073,1896 10165,1909C10228,1918 10279,1915 10370,1898ZM1550,1665C1733,1616 1873,1535 2016,1397C2117,1301 2169,1234 2154,1221C2149,1216 2111,1198 2070,1180C2029,1163 1990,1146 1983,1144C1977,1141 1939,1173 1898,1215C1729,1393 1519,1484 1280,1484C1041,1484 830,1393 662,1216L589,1139L502,1176C454,1196 411,1216 406,1221C383,1241 546,1419 664,1502C812,1606 943,1658 1150,1694C1164,1697 1238,1697 1315,1695C1425,1692 1476,1685 1550,1665ZM4110,1665C4293,1616 4433,1535 4576,1397C4677,1301 4729,1234 4714,1221C4709,1216 4671,1198 4630,1180C4589,1163 4550,1146 4543,1144C4537,1141 4499,1173 4458,1215C4289,1393 4079,1484 3840,1484C3601,1484 3390,1393 3222,1216L3149,1139L3062,1176C3014,1196 2971,1216 2966,1221C2943,1241 3106,1419 3224,1502C3372,1606 3503,1658 3710,1694C3724,1697 3798,1697 3875,1695C3985,1692 4036,1685 4110,1665ZM6670,1665C6853,1616 6993,1535 7136,1397C7237,1301 7289,1234 7274,1221C7269,1216 7231,1198 7190,1180C7149,1163 7110,1146 7103,1144C7097,1141 7059,1173 7018,1215C6849,1393 6639,1484 6400,1484C6161,1484 5950,1393 5782,1216L5709,1139L5622,1176C5574,1196 5531,1216 5526,1221C5504,1241 5669,1421 5785,1502C5932,1606 6064,1658 6270,1694C6284,1697 6358,1697 6435,1695C6545,1692 6596,1685 6670,1665ZM9230,1665C9413,1616 9553,1535 9696,1397C9797,1301 9849,1234 9834,1221C9829,1216 9791,1198 9750,1180C9709,1163 9670,1146 9663,1144C9657,1141 9619,1173 9578,1215C9409,1393 9199,1484 8960,1484C8721,1484 8510,1393 8342,1216L8269,1139L8182,1176C8134,1196 8091,1216 8086,1221C8064,1241 8229,1421 8345,1502C8492,1606 8624,1658 8830,1694C8844,1697 8918,1697 8995,1695C9105,1692 9156,1685 9230,1665ZM11790,1665C11973,1616 12113,1535 12256,1397C12357,1301 12409,1234 12394,1221C12389,1216 12351,1198 12310,1180C12269,1163 12230,1146 12224,1144C12218,1141 12180,1174 12139,1216C11966,1394 11759,1484 11520,1484C11281,1484 11070,1393 10902,1216L10829,1139L10742,1176C10694,1196 10651,1216 10646,1221C10624,1241 10789,1421 10905,1502C11052,1606 11184,1658 11390,1694C11404,1697 11478,1697 11555,1695C11665,1692 11716,1685 11790,1665ZM2659,1460C2702,1439 2730,1407 2749,1361C2759,1337 2759,1327 2747,1304L2733,1277L2387,1275L2372,1306C2358,1336 2359,1341 2381,1381C2437,1480 2554,1514 2659,1460ZM5219,1460C5262,1439 5290,1407 5309,1361C5319,1337 5319,1327 5307,1304L5293,1277L4947,1275L4932,1306C4918,1336 4919,1341 4941,1381C4997,1480 5114,1514 5219,1460ZM7779,1460C7822,1439 7850,1407 7869,1361C7879,1337 7879,1327 7867,1304L7853,1277L7507,1275L7492,1306C7478,1336 7479,1341 7501,1381C7557,1480 7674,1514 7779,1460ZM10339,1460C10382,1439 10410,1407 10429,1361C10439,1337 10439,1327 10427,1304L10413,1277L10067,1275L10052,1306C10038,1336 10039,1341 10061,1381C10117,1480 10234,1514 10339,1460ZM1480,1241C1567,1211 1676,1142 1733,1081C1759,1053 1780,1027 1780,1023C1780,1016 1712,954 1653,906C1629,888 1629,888 1577,937C1475,1032 1389,1065 1255,1058C1153,1053 1064,1014 985,940C923,881 933,879 836,967C770,1025 770,1028 842,1096C914,1166 1020,1225 1125,1255C1202,1277 1397,1269 1480,1241ZM4040,1241C4127,1211 4236,1142 4293,1081C4319,1053 4340,1027 4340,1023C4340,1016 4272,954 4213,906C4189,888 4189,888 4137,937C4035,1032 3949,1065 3815,1058C3713,1053 3624,1014 3545,940C3483,881 3493,879 3396,967C3330,1025 3330,1028 3402,1096C3474,1166 3580,1225 3685,1255C3762,1277 3957,1269 4040,1241ZM6600,1241C6687,1211 6796,1142 6853,1081C6879,1053 6900,1027 6900,1023C6900,1016 6832,954 6773,906C6749,888 6749,888 6697,937C6595,1032 6509,1065 6375,1058C6273,1053 6184,1014 6105,940C6043,881 6053,879 5956,967C5890,1025 5890,1028 5962,1096C6034,1166 6140,1225 6245,1255C6322,1277 6517,1269 6600,1241ZM9160,1241C9247,1211 9356,1142 9413,1081C9439,1053 9460,1027 9460,1023C9460,1016 9392,954 9333,906C9309,888 9309,888 9257,937C9155,1032 9069,1065 8935,1058C8833,1053 8744,1014 8665,940C8603,881 8613,879 8516,967C8450,1025 8450,1028 8522,1096C8594,1166 8700,1225 8805,1255C8882,1277 9077,1269 9160,1241ZM11720,1241C11756,1228 11812,1202 11845,1182C11909,1144 12020,1044 12020,1026C12020,1016 11960,960 11893,906C11869,888 11869,888 11817,937C11715,1032 11629,1065 11495,1058C11393,1053 11304,1014 11225,940C11163,881 11173,879 11076,967C11010,1025 11010,1028 11082,1096C11154,1166 11260,1225 11365,1255C11442,1277 11637,1269 11720,1241ZM2716,1049C2870,1028 3026,965 3166,869C3268,798 3446,613 3437,586C3435,581 3392,559 3342,538L3250,500L3183,571C3033,730 2857,818 2641,842C2381,870 2128,773 1937,570L1869,499L1778,538C1727,559 1684,582 1683,587C1678,600 1765,705 1834,770C2069,993 2390,1095 2716,1049ZM5276,1049C5430,1028 5586,965 5726,869C5828,798 6006,613 5997,586C5995,581 5952,559 5902,538L5810,500L5743,571C5551,774 5278,876 5023,841C4821,813 4669,738 4521,592L4426,500L4336,538C4287,560 4244,582 4243,587C4238,600 4325,705 4394,770C4629,993 4950,1095 5276,1049ZM7836,1049C7990,1028 8146,965 8286,869C8388,798 8566,613 8557,586C8555,581 8512,559 8462,538L8370,500L8303,571C8111,774 7838,876 7583,841C7381,813 7229,738 7081,592L6986,500L6896,538C6847,560 6804,582 6803,587C6798,600 6885,705 6954,770C7189,993 7510,1095 7836,1049ZM10396,1049C10550,1028 10706,965 10846,869C10948,798 11126,613 11117,586C11115,581 11072,559 11022,538L10930,500L10863,571C10671,774 10398,876 10143,841C9941,813 9789,738 9641,592L9546,500L9456,538C9407,560 9364,582 9363,587C9358,600 9445,705 9514,770C9749,993 10070,1095 10396,1049ZM1373,824C1419,801 1439,780 1462,736C1481,698 1482,694 1466,666L1450,635L1110,635L1094,666C1078,696 1078,699 1101,740C1155,837 1274,874 1373,824ZM3933,824C3979,801 3999,780 4022,736C4041,698 4042,694 4026,666L4010,635L3670,635L3654,666C3638,696 3638,699 3661,740C3715,837 3834,874 3933,824ZM6493,824C6539,801 6559,780 6582,736C6601,698 6602,694 6586,666L6570,635L6230,635L6214,666C6198,696 6198,699 6221,740C6275,837 6394,874 6493,824ZM9053,824C9099,801 9119,780 9142,736C9161,698 9162,694 9146,666L9130,635L8790,635L8774,666C8758,696 8758,699 8781,740C8835,837 8954,874 9053,824ZM11613,824C11659,801 11679,780 11702,736C11721,698 11722,694 11706,666L11690,635L11350,635L11334,666C11318,696 11318,699 11341,740C11395,837 11514,874 11613,824ZM2690,618C2765,604 2828,578 2904,530C2963,493 3060,401 3060,383C3060,376 2992,314 2933,266C2909,248 2909,248 2855,299C2758,391 2622,437 2503,418C2421,405 2329,359 2265,299C2211,248 2211,248 2187,266C2121,319 2060,376 2060,385C2060,403 2162,496 2227,538C2295,581 2393,616 2485,629C2548,638 2599,635 2690,618ZM5250,618C5325,604 5388,578 5464,530C5523,493 5620,401 5620,383C5620,376 5552,314 5493,266C5469,248 5469,248 5415,299C5318,391 5182,437 5063,418C4981,405 4889,359 4825,299C4771,248 4771,248 4747,266C4681,319 4620,376 4620,385C4620,403 4722,496 4787,538C4855,581 4953,616 5045,629C5108,638 5159,635 5250,618ZM7810,618C7885,604 7948,578 8024,530C8083,493 8180,401 8180,383C8180,376 8112,314 8053,266C8029,248 8029,248 7975,299C7804,461 7556,461 7385,299C7331,248 7331,248 7307,266C7241,319 7180,376 7180,385C7180,403 7282,496 7347,538C7415,581 7513,616 7605,629C7668,638 7719,635 7810,618ZM10370,618C10445,604 10508,578 10584,530C10643,493 10740,401 10740,383C10740,376 10672,314 10613,266C10589,248 10589,248 10535,299C10364,461 10116,461 9945,299C9891,248 9891,248 9867,266C9801,319 9740,376 9740,385C9740,403 9842,496 9907,538C9975,581 10073,616 10165,629C10228,638 10279,635 10370,618Z" style="fill-rule:nonzero;"/>
            <path d="M1195,204C1041,181 908,131 789,49L725,5L1003,2C1155,1 1405,1 1558,2L1835,5L1771,49C1685,108 1560,165 1473,184C1397,201 1247,212 1195,204Z" style="fill-rule:nonzero;"/>
            <path d="M3755,204C3601,181 3468,131 3349,49L3285,5L3563,2C3715,1 3965,1 4118,2L4395,5L4331,49C4245,108 4120,165 4033,184C3957,201 3807,212 3755,204Z" style="fill-rule:nonzero;"/>
            <path d="M6315,204C6161,181 6028,131 5909,49L5845,5L6123,2C6275,1 6525,1 6678,2L6955,5L6891,49C6805,108 6680,165 6593,184C6517,201 6367,212 6315,204Z" style="fill-rule:nonzero;"/>
            <path d="M8875,204C8721,181 8588,131 8469,49L8405,5L8683,2C8835,1 9085,1 9238,2L9515,5L9451,49C9365,108 9240,165 9153,184C9077,201 8927,212 8875,204Z" style="fill-rule:nonzero;"/>
            <path d="M11435,204C11281,181 11148,131 11029,49L10965,5L11243,2C11395,1 11645,1 11798,2L12075,5L12011,49C11925,108 11800,165 11713,184C11637,201 11487,212 11435,204Z" style="fill-rule:nonzero;"/>
        </g>
    </g>
</svg>
